<svg xmlns="http://www.w3.org/2000/svg" width="228.01" height="83.34" viewBox="0 0 228.01 83.34"><defs><style>.cls-1{fill:#e6512e;}.cls-2,.cls-3,.cls-4,.cls-5,.cls-6,.cls-7,.cls-8,.cls-9{fill:none;stroke-width:5.44px;}.cls-2{stroke:#e1001a;}.cls-3{stroke:#e1007a;}.cls-4{stroke:#f19300;}.cls-5{stroke:#fce90a;}.cls-6{stroke:#c8d20a;}.cls-7{stroke:#00a9d2;}.cls-8{stroke:#92117e;}.cls-9{stroke:gray;}</style></defs><title>Fichier 1</title><g id="Calque_2" data-name="Calque 2"><g id="Calque_1-2" data-name="Calque 1"><path class="cls-1" d="M56.25,67.32a.92.92,0,0,1,.88-.48,1.25,1.25,0,0,1,.82.31.63.63,0,0,1,.24.75,9,9,0,0,1-14.88,3.44,9,9,0,0,1,0-12.74A8.77,8.77,0,0,1,49.7,56a8.92,8.92,0,0,1,5.23,1.64,8.53,8.53,0,0,1,3.26,4.29.85.85,0,0,1,0,.25c0,.54-.37.81-1.1.81a1,1,0,0,1-.91-.44c0-.19-.11-.4-.19-.62a6.88,6.88,0,0,0-2.56-2.82A7,7,0,1,0,49.7,72a6.62,6.62,0,0,0,3.77-1.15,7.71,7.71,0,0,0,2.64-2.95C56.16,67.71,56.2,67.51,56.25,67.32Z"/><path class="cls-1" d="M68.77,51.87a1.1,1.1,0,0,0-.43.61.92.92,0,0,0,0,.29,1.28,1.28,0,0,0,.1.47,1,1,0,0,0,.65.48l.23,0a1,1,0,0,0,.52-.14l5.19-3a1.07,1.07,0,0,0,.45-.65,1.94,1.94,0,0,0,0-.24,1.1,1.1,0,0,0-.14-.52.93.93,0,0,0-.6-.47l-.24,0a.87.87,0,0,0-.51.19l-.08-.11.07.11Z"/><path class="cls-1" d="M80.19,65.16V47.55c0-.46.38-.7,1-.7s1,.24,1,.7V65.19a6.86,6.86,0,0,0,1.43,4.23,6.78,6.78,0,0,0,3.62,2.51q1,.18,1,1c0,.83-.33,1.17-1,1a8.63,8.63,0,0,1-5-3.1A8.78,8.78,0,0,1,80.19,65.16Z"/><path class="cls-1" d="M87.8,63A9,9,0,1,1,91,72a9,9,0,0,1-3.17-5.11q-.21-1,1-1,.92,0,1,1a7.11,7.11,0,0,0,2.58,3.66A6.86,6.86,0,0,0,96.59,72a7,7,0,1,0,0-14.06A7,7,0,0,0,89.85,63q-.21,1-1,1C88,64,87.66,63.69,87.8,63Z"/><path class="cls-1" d="M109.51,55.93a1.16,1.16,0,0,1,.8.33L124,70c.2.19.33.29.4.29s.17-.1.15-.29V57c0-.69.39-1,1-1a1,1,0,0,1,1.07,1V72.91a1,1,0,0,1-.81,1,1.55,1.55,0,0,1-.29,0,1.13,1.13,0,0,1-.77-.33L111.3,60.14a1,1,0,0,0-.58-.37c-.15,0-.21.14-.19.41V73a1,1,0,0,1-1,1,.94.94,0,0,1-1-1V57A1,1,0,0,1,109.51,55.93Z"/><path class="cls-1" d="M130.81,56.15c.64,0,1,.34,1,1v7.94a6.8,6.8,0,0,0,2,5,6.72,6.72,0,0,0,5,2.07A7.12,7.12,0,0,0,146,65.12V57.18c0-.69.37-1,1-1s1,.34,1,1V74.49a8.81,8.81,0,0,1-2,5.71,8.67,8.67,0,0,1-5.07,3.11c-.66.15-1-.2-1-1,0-.57.33-.91,1-1A7,7,0,0,0,146,74.53V70.75a9.06,9.06,0,0,1-16.15-5.63V57.18C129.87,56.49,130.2,56.15,130.81,56.15Z"/><path class="cls-1" d="M78.12,62.19a9,9,0,0,0-1.9-2.71,9.25,9.25,0,0,0-2.73-1.84A7.8,7.8,0,0,0,70.24,57a9.53,9.53,0,0,0-3.49.78A9,9,0,0,0,64,59.61a8.58,8.58,0,0,0-2.51,6.11,8.6,8.6,0,0,0,.69,3.47A8.34,8.34,0,0,0,64,71.93a8.78,8.78,0,0,0,2.76,1.8,8.63,8.63,0,0,0,3.38.65,9.68,9.68,0,0,0,3.45-.56,6.8,6.8,0,0,0,2.68-1.89,1,1,0,0,0,.3-.72,1,1,0,0,0-1.73-.71,6.88,6.88,0,0,1-2.13,1.39,6.51,6.51,0,0,1-2.57.51A6.4,6.4,0,0,1,67.81,72a7.11,7.11,0,0,1-2-1.17A6.89,6.89,0,0,1,64.34,69a6.13,6.13,0,0,1-.78-2.22l0-.14H77.88a1.14,1.14,0,0,0,.74-.3.81.81,0,0,0,.28-.67,1.21,1.21,0,0,0,0-.18A9,9,0,0,0,78.12,62.19ZM63.56,64.64l0-.15a6.88,6.88,0,0,1,.81-2.16,6.41,6.41,0,0,1,1.45-1.74,7.28,7.28,0,0,1,2-1.15A6.35,6.35,0,0,1,70.16,59a6.26,6.26,0,0,1,2.33.43,7.49,7.49,0,0,1,2,1.15,6.87,6.87,0,0,1,1.47,1.74,6.66,6.66,0,0,1,.82,2.16l0,.15Z"/><polygon class="cls-1" points="63.68 66.79 63.68 66.78 63.68 66.78 63.68 66.79"/><line class="cls-2" x1="25.72" y1="25.72" x2="25.72" y2="25.72"/><line class="cls-2" x1="25.72" y1="25.72" x2="25.72" y2="25.72"/><line class="cls-3" x1="42.09" y1="6.06" x2="25.72" y2="25.72"/><line class="cls-4" x1="51.2" y1="23.39" x2="25.72" y2="25.72"/><line class="cls-2" x1="25.72" y1="25.72" x2="25.72" y2="25.72"/><line class="cls-2" x1="25.72" y1="25.72" x2="25.72" y2="25.72"/><line class="cls-2" x1="25.72" y1="25.72" x2="25.72" y2="25.72"/><line class="cls-2" x1="25.72" y1="25.72" x2="25.72" y2="25.72"/><line class="cls-2" x1="25.72" y1="25.72" x2="25.72" y2="25.72"/><line class="cls-2" x1="25.72" y1="25.72" x2="25.72" y2="25.72"/><line class="cls-5" x1="45.39" y1="42.09" x2="25.72" y2="25.72"/><line class="cls-6" x1="28.05" y1="51.2" x2="25.72" y2="25.72"/><line class="cls-7" x1="9.36" y1="45.38" x2="25.72" y2="25.72"/><line class="cls-8" x1="25.72" y1="25.72" x2="0.25" y2="28.05"/><line class="cls-9" x1="25.72" y1="25.72" x2="6.06" y2="9.36"/><line class="cls-2" x1="23.39" y1="0.25" x2="25.72" y2="25.72"/><path class="cls-1" d="M60.06,30.31a.75.75,0,0,1-.22.53.72.72,0,0,1-.53.21,4,4,0,0,1-1.85-.43,3.89,3.89,0,0,1-1.21-1,4,4,0,0,1-.67-1.27,4.06,4.06,0,0,1-.2-1.2V16.27a.72.72,0,0,1,.21-.53.75.75,0,0,1,1.06,0,.72.72,0,0,1,.21.53V27.14a2.84,2.84,0,0,0,.09.58,2.26,2.26,0,0,0,.35.79,2.43,2.43,0,0,0,.74.72,2.36,2.36,0,0,0,1.27.33.75.75,0,0,1,.75.75Z"/><path class="cls-1" d="M71.39,34.65a.73.73,0,0,1-.22.53.69.69,0,0,1-.53.22.71.71,0,0,1-.53-.22.72.72,0,0,1-.21-.53V29.13A5.93,5.93,0,0,1,68,30.54a5.65,5.65,0,0,1-2.4.51,5.73,5.73,0,0,1-2.26-.45,6,6,0,0,1-1.83-1.24,5.91,5.91,0,0,1-1.24-1.84,5.65,5.65,0,0,1-.45-2.25V20.13a.72.72,0,0,1,.74-.74.72.72,0,0,1,.53.21.74.74,0,0,1,.21.53v5.14a4.26,4.26,0,0,0,.34,1.67,4.37,4.37,0,0,0,2.29,2.29,4.25,4.25,0,0,0,1.67.33,4.05,4.05,0,0,0,1.63-.32,4.56,4.56,0,0,0,1.35-.88,4.2,4.2,0,0,0,.92-1.3,4.7,4.7,0,0,0,.4-1.62V20.13a.72.72,0,0,1,.74-.74.72.72,0,0,1,.53.21.75.75,0,0,1,.22.53V34.65Z"/><path class="cls-1" d="M81.42,22.13a5,5,0,0,0-1.37-.86A4.34,4.34,0,0,0,78.39,21a4.09,4.09,0,0,0-1.67.34,4.34,4.34,0,0,0-2.29,2.3,4.34,4.34,0,0,0-.33,1.68,4.27,4.27,0,0,0,4.29,4.29,4.16,4.16,0,0,0,1.66-.32,4.65,4.65,0,0,0,1.37-.9.76.76,0,0,1,1,0,.71.71,0,0,1,.21.54.86.86,0,0,1-.28.59,4.91,4.91,0,0,1-.59.49,5.23,5.23,0,0,1-.89.52,5.74,5.74,0,0,1-1.15.39,5.45,5.45,0,0,1-1.38.16,5.92,5.92,0,0,1-2.24-.43,5.86,5.86,0,0,1-1.84-1.2,5.72,5.72,0,0,1-1.25-1.83,6,6,0,0,1,0-4.55,5.85,5.85,0,0,1,1.23-1.82A5.93,5.93,0,0,1,76.12,20a6.39,6.39,0,0,1,2.32-.51,4.7,4.7,0,0,1,1.33.18,6.26,6.26,0,0,1,1.11.43,6.49,6.49,0,0,1,.87.54c.26.19.47.36.63.5a1,1,0,0,1,.25.45.55.55,0,0,1-.16.59.76.76,0,0,1-1,0Z"/><path class="cls-1" d="M85.35,26a4,4,0,0,0,.51,1.43,4.34,4.34,0,0,0,.94,1.14,4.39,4.39,0,0,0,1.29.76,4.25,4.25,0,0,0,1.51.27,4.2,4.2,0,0,0,1.66-.32,4.6,4.6,0,0,0,1.36-.9.74.74,0,0,1,.53-.21.72.72,0,0,1,.53.21.73.73,0,0,1,.22.53.75.75,0,0,1-.22.53,4.52,4.52,0,0,1-1.79,1.26A6.47,6.47,0,0,1,89.6,31a5.92,5.92,0,0,1-2.24-.43,5.86,5.86,0,0,1-1.84-1.2,5.72,5.72,0,0,1-1.25-1.83,5.79,5.79,0,0,1-.45-2.3A5.64,5.64,0,0,1,84.26,23a5.82,5.82,0,0,1,1.22-1.82A6,6,0,0,1,87.33,20a6.34,6.34,0,0,1,2.32-.51,5.3,5.3,0,0,1,2.17.45,6.24,6.24,0,0,1,1.81,1.23,5.73,5.73,0,0,1,1.26,1.8,5.83,5.83,0,0,1,.52,2.21.67.67,0,0,1-.21.62.8.8,0,0,1-.54.21Zm4.25-5a4.16,4.16,0,0,0-1.5.27,4.73,4.73,0,0,0-1.27.75,3.93,3.93,0,0,0-.94,1.12,4.22,4.22,0,0,0-.51,1.39h8.47a4.26,4.26,0,0,0-.53-1.39A4.13,4.13,0,0,0,92.37,22a4.73,4.73,0,0,0-1.27-.75A4.16,4.16,0,0,0,89.6,21Zm2.28-6.39a.63.63,0,0,1,.56-.1.71.71,0,0,1,.45.34.84.84,0,0,1,.08.56.81.81,0,0,1-.32.48l-3.41,2a.82.82,0,0,1-.55.08.74.74,0,0,1-.48-.35.84.84,0,0,1,0-.56.77.77,0,0,1,.31-.44Z"/><path class="cls-1" d="M98.07,26a4,4,0,0,0,.51,1.43,4.34,4.34,0,0,0,.94,1.14,4.39,4.39,0,0,0,1.29.76,4.25,4.25,0,0,0,1.51.27,4.2,4.2,0,0,0,1.66-.32,4.6,4.6,0,0,0,1.36-.9.74.74,0,0,1,.53-.21.72.72,0,0,1,.53.21.73.73,0,0,1,.22.53.75.75,0,0,1-.22.53,4.52,4.52,0,0,1-1.79,1.26,6.47,6.47,0,0,1-2.29.37,5.92,5.92,0,0,1-2.24-.43,5.86,5.86,0,0,1-1.84-1.2A5.72,5.72,0,0,1,97,27.57a5.79,5.79,0,0,1-.45-2.3A5.64,5.64,0,0,1,97,23,5.82,5.82,0,0,1,98.2,21.2,6,6,0,0,1,100.05,20a6.34,6.34,0,0,1,2.32-.51,5.3,5.3,0,0,1,2.17.45,6.24,6.24,0,0,1,1.81,1.23,5.73,5.73,0,0,1,1.26,1.8,5.83,5.83,0,0,1,.52,2.21.67.67,0,0,1-.21.62.8.8,0,0,1-.54.21Zm4.25-5a4.16,4.16,0,0,0-1.5.27,4.73,4.73,0,0,0-1.27.75,3.93,3.93,0,0,0-.94,1.12,4.22,4.22,0,0,0-.51,1.39h8.47a4.26,4.26,0,0,0-.53-1.39,4.13,4.13,0,0,0-1-1.12,4.73,4.73,0,0,0-1.27-.75A4.16,4.16,0,0,0,102.32,21Z"/><path class="cls-1" d="M120.78,19.44a5.19,5.19,0,0,1,2.44.68,8.18,8.18,0,0,1,1.9,1.5v-5.3a.74.74,0,0,1,1.27-.53.73.73,0,0,1,.22.53v9a5.79,5.79,0,0,1-.46,2.3,5.57,5.57,0,0,1-1.25,1.83,5.86,5.86,0,0,1-1.84,1.2,6,6,0,0,1-2.24.43,5.63,5.63,0,0,1-2.28-.46,5.81,5.81,0,0,1-1.83-1.24,6.28,6.28,0,0,1-1.24-1.84,5.74,5.74,0,0,1,0-4.48,6.08,6.08,0,0,1,1.26-1.84,6.24,6.24,0,0,1,1.84-1.27A5.36,5.36,0,0,1,120.78,19.44Zm4.34,5.83a4.87,4.87,0,0,0-.4-1.73,4.52,4.52,0,0,0-.92-1.37,4.27,4.27,0,0,0-4.66-.88,4.45,4.45,0,0,0-1.38.92,4.23,4.23,0,0,0-.92,1.38,4.35,4.35,0,0,0-.34,1.68,4.28,4.28,0,0,0,1.26,3,4.48,4.48,0,0,0,1.38.93,4.34,4.34,0,0,0,1.68.33,4.22,4.22,0,0,0,1.67-.33,4.32,4.32,0,0,0,1.37-.93,4.25,4.25,0,0,0,.92-1.36A4.09,4.09,0,0,0,125.12,25.27Z"/><path class="cls-1" d="M129.37,26a4.13,4.13,0,0,0,.5,1.43,4.39,4.39,0,0,0,2.23,1.9,4.31,4.31,0,0,0,1.52.27,4.11,4.11,0,0,0,1.65-.32,4.65,4.65,0,0,0,1.37-.9.72.72,0,0,1,.53-.21.76.76,0,0,1,.53.21.72.72,0,0,1,.21.53.74.74,0,0,1-.21.53,4.59,4.59,0,0,1-1.79,1.26,6.51,6.51,0,0,1-2.29.37,6,6,0,0,1-2.25-.43,5.81,5.81,0,0,1-1.83-1.2,5.57,5.57,0,0,1-1.25-1.83,5.8,5.8,0,0,1,1.21-6.37A6,6,0,0,1,131.35,20a6.29,6.29,0,0,1,2.31-.51,5.35,5.35,0,0,1,2.18.45,6.24,6.24,0,0,1,1.81,1.23,5.73,5.73,0,0,1,1.26,1.8,5.82,5.82,0,0,1,.51,2.21.64.64,0,0,1-.2.62.84.84,0,0,1-.54.21Zm4.25-5a4.16,4.16,0,0,0-1.5.27,4.79,4.79,0,0,0-1.28.75,4.06,4.06,0,0,0-.93,1.12,4.48,4.48,0,0,0-.52,1.39h8.47a4.24,4.24,0,0,0-.52-1.39,4.31,4.31,0,0,0-1-1.12,4.89,4.89,0,0,0-1.27-.75A4.24,4.24,0,0,0,133.62,21Z"/><path class="cls-1" d="M140.7,30.31a.72.72,0,0,1,.21-.53.75.75,0,0,1,.53-.22h5.18a1.6,1.6,0,0,0,1.2-.5,1.7,1.7,0,0,0-1.2-2.9h-2.8a3.4,3.4,0,0,1-2.38-1,3.31,3.31,0,0,1-.72-1.07,3.15,3.15,0,0,1-.27-1.3,3.45,3.45,0,0,1,1-2.4,3.4,3.4,0,0,1,2.38-1h4.89a.69.69,0,0,1,.53.22.72.72,0,0,1,.21.53.73.73,0,0,1-.74.74h-4.89a1.91,1.91,0,0,0-1.33.58,1.87,1.87,0,0,0,1.33,3.19h2.8a3.05,3.05,0,0,1,1.24.25,3.43,3.43,0,0,1,1,.68,3.34,3.34,0,0,1,.94,2.26,3.29,3.29,0,0,1-.94,2.26,3.43,3.43,0,0,1-1,.68,3.05,3.05,0,0,1-1.24.25h-5.18a.72.72,0,0,1-.74-.74Z"/><path class="cls-1" d="M163.64,23.35a2.5,2.5,0,0,0-.76-1.75,2.3,2.3,0,0,0-1.69-.7,2.34,2.34,0,0,0-.95.19,2.58,2.58,0,0,0-.77.53,2.63,2.63,0,0,0-.51.78,2.34,2.34,0,0,0-.19,1v7a.75.75,0,0,1-.22.53.72.72,0,0,1-.53.21.72.72,0,0,1-.74-.74v-7a4,4,0,0,1,.3-1.54,3.8,3.8,0,0,1,.83-1.25,3.89,3.89,0,0,1,2.78-1.15,3.69,3.69,0,0,1,1.82.45,3.78,3.78,0,0,1,1.35,1.19,4,4,0,0,1,1.37-1.19,3.69,3.69,0,0,1,1.82-.45,3.89,3.89,0,0,1,2.78,1.15,4,4,0,0,1,1.16,2.79v7a.75.75,0,0,1-.22.53.72.72,0,0,1-.53.21.72.72,0,0,1-.74-.74v-7a2.41,2.41,0,0,0-.72-1.73,2.76,2.76,0,0,0-.78-.53,2.47,2.47,0,0,0-1.9,0,2.58,2.58,0,0,0-.77.53,2.63,2.63,0,0,0-.51.78,2.34,2.34,0,0,0-.19,1v7a.75.75,0,0,1-.22.53.72.72,0,0,1-.53.21.72.72,0,0,1-.74-.74Z"/><path class="cls-1" d="M174.27,26a4,4,0,0,0,.51,1.43,4.34,4.34,0,0,0,.94,1.14,4.39,4.39,0,0,0,1.29.76,4.25,4.25,0,0,0,1.51.27,4.11,4.11,0,0,0,1.65-.32,4.52,4.52,0,0,0,1.37-.9.77.77,0,0,1,1.06,0,.73.73,0,0,1,.22.53.75.75,0,0,1-.22.53,4.59,4.59,0,0,1-1.79,1.26,6.47,6.47,0,0,1-2.29.37,5.92,5.92,0,0,1-2.24-.43,5.86,5.86,0,0,1-1.84-1.2,5.57,5.57,0,0,1-1.25-1.83,5.79,5.79,0,0,1-.45-2.3,5.68,5.68,0,0,1,1.66-4.07A6,6,0,0,1,176.25,20a6.34,6.34,0,0,1,2.32-.51,5.34,5.34,0,0,1,2.17.45,6.24,6.24,0,0,1,1.81,1.23,5.73,5.73,0,0,1,1.26,1.8,6,6,0,0,1,.52,2.21.67.67,0,0,1-.21.62.82.82,0,0,1-.54.21Zm4.25-5a4.16,4.16,0,0,0-1.5.27,4.73,4.73,0,0,0-1.27.75,3.93,3.93,0,0,0-.94,1.12,4.48,4.48,0,0,0-.52,1.39h8.48a4.5,4.5,0,0,0-.53-1.39,4.13,4.13,0,0,0-1-1.12,4.89,4.89,0,0,0-1.27-.75A4.16,4.16,0,0,0,178.52,21Zm2.28-6.39a.63.63,0,0,1,.56-.1.71.71,0,0,1,.45.34.84.84,0,0,1,.08.56.81.81,0,0,1-.32.48l-3.41,2a.82.82,0,0,1-.55.08.7.7,0,0,1-.48-.35.84.84,0,0,1,0-.56.77.77,0,0,1,.31-.44Z"/><path class="cls-1" d="M185.6,16.27a.72.72,0,0,1,.21-.53.75.75,0,0,1,.53-.22.75.75,0,0,1,.75.75v3.07h5.3a.82.82,0,0,1,.61.22.71.71,0,0,1,0,1.05.82.82,0,0,1-.61.22h-5.3v4.44a4.27,4.27,0,0,0,4.29,4.29,4.16,4.16,0,0,0,1.66-.32,4.27,4.27,0,0,0,1.34-.9.75.75,0,0,1,.49-.25.76.76,0,0,1,.57.16.79.79,0,0,1,.24.47.8.8,0,0,1-.12.56,5.64,5.64,0,0,1-4.18,1.77,5.65,5.65,0,0,1-2.25-.45,5.8,5.8,0,0,1-3.08-3.08,5.65,5.65,0,0,1-.45-2.25Z"/><path class="cls-1" d="M196.21,16.82a1,1,0,1,1,2,0,1,1,0,0,1-.28.7,1,1,0,0,1-1.4,0A1,1,0,0,1,196.21,16.82Zm.24,3.34a.72.72,0,0,1,.21-.53.75.75,0,0,1,1.06,0,.72.72,0,0,1,.21.53V30.31a.74.74,0,1,1-1.48,0Z"/><path class="cls-1" d="M200.67,26a4.13,4.13,0,0,0,.5,1.43,4.58,4.58,0,0,0,1,1.14,4.39,4.39,0,0,0,1.29.76,4.25,4.25,0,0,0,1.51.27,4.11,4.11,0,0,0,1.65-.32,4.52,4.52,0,0,0,1.37-.9.77.77,0,0,1,1.06,0,.72.72,0,0,1,.21.53.74.74,0,0,1-.21.53,4.59,4.59,0,0,1-1.79,1.26,6.47,6.47,0,0,1-2.29.37,6,6,0,0,1-2.25-.43,5.93,5.93,0,0,1-1.83-1.2,5.57,5.57,0,0,1-1.25-1.83,5.79,5.79,0,0,1-.46-2.3,5.74,5.74,0,0,1,1.67-4.07A6,6,0,0,1,202.65,20a6.29,6.29,0,0,1,2.32-.51,5.34,5.34,0,0,1,2.17.45A6.24,6.24,0,0,1,209,21.12a5.73,5.73,0,0,1,1.26,1.8,6,6,0,0,1,.52,2.21.67.67,0,0,1-.21.62A.84.84,0,0,1,210,26Zm4.25-5a4.16,4.16,0,0,0-1.5.27,4.73,4.73,0,0,0-1.27.75,3.93,3.93,0,0,0-.94,1.12,4.48,4.48,0,0,0-.52,1.39h8.48a4.5,4.5,0,0,0-.53-1.39,4.13,4.13,0,0,0-.95-1.12,4.89,4.89,0,0,0-1.27-.75A4.16,4.16,0,0,0,204.92,21Z"/><path class="cls-1" d="M211.76,25.17A5.75,5.75,0,0,1,212.2,23a5.89,5.89,0,0,1,1.23-1.83,5.7,5.7,0,0,1,1.81-1.25,5.84,5.84,0,0,1,2.21-.48.87.87,0,0,1,.61.21.72.72,0,0,1,.23.53.7.7,0,0,1-.23.53.88.88,0,0,1-.61.22,4.09,4.09,0,0,0-1.63.37,4.55,4.55,0,0,0-1.35.92,4.24,4.24,0,0,0-1.22,3v5.14a.75.75,0,0,1-.22.53.72.72,0,0,1-.53.21.72.72,0,0,1-.74-.74Z"/><path class="cls-1" d="M218.89,30.31a.72.72,0,0,1,.21-.53.75.75,0,0,1,.53-.22h5.18a1.6,1.6,0,0,0,1.2-.5,1.7,1.7,0,0,0-1.2-2.9H222a3.2,3.2,0,0,1-1.31-.27,3.16,3.16,0,0,1-1.07-.72,3.47,3.47,0,0,1-.72-1.07,3.15,3.15,0,0,1-.26-1.3,3.24,3.24,0,0,1,.26-1.32,3.4,3.4,0,0,1,.72-1.08,3.16,3.16,0,0,1,1.07-.72,3.2,3.2,0,0,1,1.31-.27h4.89a.69.69,0,0,1,.53.22.73.73,0,0,1,.22.53.71.71,0,0,1-.22.52.69.69,0,0,1-.53.22H222a1.87,1.87,0,0,0-1.32.58,1.84,1.84,0,0,0,0,2.64,1.77,1.77,0,0,0,1.32.55h2.8a3.05,3.05,0,0,1,1.24.25,3.43,3.43,0,0,1,1,.68,3.34,3.34,0,0,1,.94,2.26,3.29,3.29,0,0,1-.94,2.26,3.43,3.43,0,0,1-1,.68,3.05,3.05,0,0,1-1.24.25h-5.18a.72.72,0,0,1-.74-.74Z"/></g></g></svg>